Coordinates
version=1
nRows=11
nColumns=63
inDegrees=yes

Units are S.I. units (second, meters, Newtons, ...)
If the header above contains a line with 'inDegrees', this indicates whether rotational values are in degrees (yes) or radians (no).

endheader
time	pelvis_tilt	pelvis_list	pelvis_rotation	pelvis_tx	pelvis_ty	pelvis_tz	hip_flexion_r	hip_adduction_r	hip_rotation_r	knee_angle_r	knee_angle_r_beta	ankle_angle_r	subtalar_angle_r	mtp_angle_r	hip_flexion_l	hip_adduction_l	hip_rotation_l	knee_angle_l	knee_angle_l_beta	ankle_angle_l	subtalar_angle_l	mtp_angle_l	L5_S1_Flex_Ext	L5_S1_Lat_Bending	L5_S1_axial_rotation	L4_L5_Flex_Ext	L4_L5_Lat_Bending	L4_L5_axial_rotation	L3_L4_Flex_Ext	L3_L4_Lat_Bending	L3_L4_axial_rotation	L2_L3_Flex_Ext	L2_L3_Lat_Bending	L2_L3_axial_rotation	L1_L2_Flex_Ext	L1_L2_Lat_Bending	L1_L2_axial_rotation	L1_T12_Flex_Ext	L1_T12_Lat_Bending	L1_T12_axial_rotation	Abs_r3	Abs_r2	Abs_r1	Abs_t1	Abs_t2	neck_flexion	neck_bending	neck_rotation	arm_flex_r	arm_add_r	arm_rot_r	elbow_flex_r	pro_sup_r	wrist_flex_r	wrist_dev_r	arm_flex_l	arm_add_l	arm_rot_l	elbow_flex_l	pro_sup_l	wrist_flex_l	wrist_dev_l
0.000000	-2.668975	-4.717803	107.590828	0.063098	0.937235	0.538246	-0.306484	-1.090904	-13.567169	7.247066	0.126485	20.620829	7.554211	0.000000	2.644277	1.983183	7.623016	5.886734	0.102743	23.753769	2.673258	0.000000	0.163451	0.133503	-1.480750	0.303544	0.177558	-1.573297	0.268533	0.324598	-1.573297	0.186808	0.324598	-1.295657	0.151780	0.272238	-1.203110	0.093396	0.206795	-1.110563	1.167511	1.510207	-8.235489	0.000000	0.000000	27.114636	-1.858284	-0.010572	7.177769	-13.579491	56.299448	58.334061	82.429881	9.344814	-14.771323	11.046828	-7.771982	47.690008	55.376889	81.714449	23.303051	7.095366
0.016949	-2.907297	-4.823485	106.832941	0.064449	0.937144	0.538184	-0.041331	-1.462646	-13.836881	7.692856	0.134266	20.829342	8.460066	0.000000	2.465174	2.296261	8.689432	5.446940	0.095067	23.304711	0.445525	0.000000	0.156933	0.105846	-1.377031	0.291440	0.140775	-1.463095	0.257825	0.257353	-1.463095	0.179359	0.257353	-1.204902	0.145728	0.215840	-1.118837	0.089671	0.163955	-1.032773	1.120956	1.197346	-7.658632	0.000000	0.000000	26.853149	-1.390024	0.244709	7.454281	-13.308365	56.024670	58.268176	84.689550	9.142270	-13.895605	10.412638	-7.843410	46.474639	55.669424	81.459244	22.667497	7.521048
0.033898	-3.103595	-4.927774	106.228790	0.065525	0.937039	0.538250	0.239834	-1.799626	-14.160366	8.165038	0.142507	21.078754	9.264372	0.000000	2.354633	2.563737	9.577559	5.112257	0.089226	22.934062	-1.380206	0.000000	0.152272	0.082799	-1.296174	0.282785	0.110122	-1.377184	0.250168	0.201316	-1.377184	0.174032	0.201316	-1.134152	0.141400	0.168843	-1.053141	0.087008	0.128255	-0.972130	1.087665	0.936634	-7.208928	0.000000	0.000000	26.646117	-0.986808	0.453702	7.699228	-13.049305	55.858153	58.122328	86.193490	9.051210	-12.889212	9.897917	-7.896440	45.577750	55.831653	81.008396	21.978196	7.899794
0.050847	-3.260831	-5.029882	105.764744	0.066351	0.936924	0.538430	0.532158	-2.102200	-14.526553	8.654001	0.151041	21.362742	9.973307	0.000000	2.305227	2.788452	10.305258	4.872943	0.085049	22.634213	-2.841582	0.000000	0.149259	0.064039	-1.236083	0.277189	0.085172	-1.313338	0.245218	0.155704	-1.313338	0.170588	0.155704	-1.081572	0.138602	0.130588	-1.004317	0.085287	0.099196	-0.927062	1.066143	0.724421	-6.874721	0.000000	0.000000	26.488675	-0.644182	0.620218	7.914408	-12.803894	55.786039	57.910687	87.025462	9.057277	-11.778305	9.491516	-7.932271	44.963356	55.879003	80.398004	21.250735	8.230293
0.067797	-3.381967	-5.129022	105.427169	0.066953	0.936800	0.538707	0.830788	-2.370725	-14.924370	9.150131	0.159700	21.674980	10.593046	0.000000	2.309525	2.973251	10.890389	4.719256	0.082367	22.397552	-3.976248	0.000000	0.147684	0.049244	-1.194662	0.274264	0.065495	-1.269329	0.242630	0.119732	-1.269329	0.168788	0.119732	-1.045329	0.137140	0.100418	-0.970663	0.084387	0.076279	-0.895997	1.054894	0.557059	-6.644353	0.000000	0.000000	26.375956	-0.357695	0.748068	8.101620	-12.573716	55.794474	57.647421	87.269227	9.146114	-10.589049	9.182291	-7.952100	44.595475	55.826903	79.664171	20.500704	8.511231
0.084746	-3.469965	-5.224406	105.202435	0.067357	0.936670	0.539065	1.130871	-2.605557	-15.342749	9.643815	0.168316	22.009144	11.129767	0.000000	2.360099	3.120976	11.350813	4.641454	0.081009	22.216469	-4.821850	0.000000	0.147338	0.038092	-1.169816	0.273622	0.050662	-1.242930	0.242062	0.092616	-1.242930	0.168393	0.092616	-1.023589	0.136818	0.077676	-0.950476	0.084189	0.059004	-0.877362	1.052423	0.430899	-6.506167	0.000000	0.000000	26.303096	-0.122895	0.841063	8.262663	-12.360354	55.869601	57.346698	87.008548	9.303367	-9.347606	8.959093	-7.957125	44.438120	55.690777	78.842996	19.743692	8.741297
0.101695	-3.527788	-5.315248	105.076910	0.067587	0.936535	0.539490	1.427553	-2.807053	-15.770618	10.125440	0.176722	22.358909	11.589648	0.000000	2.449520	3.234471	11.704390	4.629794	0.080805	22.083354	-5.416034	0.000000	0.148012	0.030259	-1.159448	0.274873	0.040244	-1.231914	0.243169	0.073571	-1.231914	0.169163	0.073571	-1.014517	0.137444	0.061704	-0.942052	0.084574	0.046871	-0.869586	1.057233	0.342294	-6.448504	0.000000	0.000000	26.265228	0.064672	0.903014	8.399336	-12.165390	55.997562	57.022686	86.327183	9.514679	-8.080137	8.810775	-7.948544	44.455307	55.486054	77.970580	18.995289	8.919179
0.118644	-3.558397	-5.400758	105.036960	0.067669	0.936397	0.539966	1.715982	-2.975569	-16.196906	10.585392	0.184750	22.717950	11.978866	0.000000	2.570358	3.316577	11.968981	4.674535	0.081586	21.990595	-5.796445	0.000000	0.149495	0.025423	-1.161463	0.277628	0.033813	-1.234054	0.245606	0.061814	-1.234054	0.170858	0.061814	-1.016280	0.138821	0.051843	-0.943689	0.085422	0.039381	-0.871097	1.067831	0.287594	-6.459708	0.000000	0.000000	26.257488	0.209456	0.937733	8.513437	-11.990408	56.164502	56.689554	85.308896	9.765693	-6.812807	8.726192	-7.927555	44.611052	55.228160	77.083024	18.271084	9.043566
0.135593	-3.564756	-5.480151	105.068955	0.067628	0.936259	0.540478	1.991304	-3.111462	-16.610544	11.014059	0.192232	23.079943	12.303597	0.000000	2.715184	3.370138	12.162446	4.765933	0.083181	21.930582	-6.000728	0.000000	0.151580	0.023263	-1.173764	0.281499	0.030939	-1.247124	0.249030	0.056561	-1.247124	0.173241	0.056561	-1.027043	0.140757	0.047437	-0.953683	0.086613	0.036034	-0.880323	1.082719	0.263152	-6.528120	0.000000	0.000000	26.275010	0.315911	0.949030	8.606766	-11.836992	56.356564	56.361470	84.037447	10.042054	-5.571777	8.694195	-7.895357	44.869369	54.932523	76.216427	17.586665	9.113144
0.152542	-3.549825	-5.552639	105.159262	0.067491	0.936122	0.541009	2.248667	-3.215089	-17.000460	11.401827	0.198999	23.438563	12.570019	0.000000	2.876570	3.397998	12.302647	4.894248	0.085421	21.895705	-6.066530	0.000000	0.154056	0.023454	-1.194254	0.286096	0.031194	-1.268895	0.253098	0.057026	-1.268895	0.176070	0.057026	-1.044973	0.143056	0.047828	-0.970332	0.088027	0.036330	-0.895691	1.100403	0.265317	-6.642085	0.000000	0.000000	26.312928	0.388489	0.940718	8.681120	-11.706724	56.559891	56.052603	82.596598	10.329405	-4.383210	8.703638	-7.853146	45.194276	54.614569	75.406891	16.957622	9.126603
0.169492	-3.516568	-5.617434	105.294249	0.067282	0.935989	0.541545	2.483217	-3.286806	-17.355585	11.739083	0.204886	23.787484	12.784309	0.000000	3.047085	3.402998	12.407443	5.049737	0.088135	21.878352	-6.031497	0.000000	0.156713	0.025675	-1.220839	0.291032	0.034148	-1.297142	0.257464	0.062426	-1.297142	0.179107	0.062426	-1.068235	0.145524	0.052357	-0.991932	0.089546	0.039771	-0.915630	1.119387	0.290442	-6.789943	0.000000	0.000000	26.366376	0.431642	0.916606	8.738299	-11.601189	56.760628	55.777122	81.070109	10.613390	-3.273270	8.743375	-7.802122	45.549786	54.289725	74.690515	16.399545	9.082630
